<?xml version="1.0" encoding="utf-8"?>
<!-- Generator: Adobe Illustrator 27.0.0, SVG Export Plug-In . SVG Version: 6.00 Build 0)  -->
<svg version="1.1" id="图层_1" xmlns="http://www.w3.org/2000/svg" xmlns:xlink="http://www.w3.org/1999/xlink" x="0px" y="0px"
	 viewBox="0 0 800 800" style="enable-background:new 0 0 800 800;" xml:space="preserve">
<g id="NWc1w4.tif">
	<g>
		<path d="M457.8,712.2c-6.8,0-15.1-2.4-22-6.5c-76.7-44.8-154.5-90.6-229.8-134.9l-49.7-29.2c-40.5-23.8-81.1-47.7-121.6-71.6
			c-14-8.2-21.2-16.7-22-25.9c-0.8-9.2,4.8-19,17.2-29.8c50.9-44.2,101.8-88.4,152.7-132.7c28.1-24.4,56.2-48.8,84.3-73.3
			c5-4.4,10.1-8.7,15.1-13.1c5.1-4.4,10.2-8.8,15.3-13.2c8.8-7.7,19.3-11.6,31.2-11.6c3.2,0,6.6,0.3,10,0.8
			c121.4,19.9,244.7,40.2,364.1,59.8l49.5,8.1c13.7,2.2,24.3,8.7,29.9,18.2c4.9,8.3,5.6,18.2,2,28.5c-3.1,8.8-9.6,15.5-20.6,20.9
			c-72.7,36.2-146.6,73-218.1,108.6l-40,19.9c-18.2,9.1-36.4,18.2-54.9,27.4l-23.7,11.8l10,38.5c10.1,39,20.1,77.8,30.2,116.5
			c1.1,4.2,2.2,8.4,3.3,12.7c3,11.3,6,23,8.7,34.6c2.4,10.6,0.8,20.5-4.5,27.3c-3.9,5-9.6,7.8-16,7.9L457.8,712.2z M413.2,634.6
			L307.9,243.9L83.6,437.5L413.2,634.6z M410.6,419.6l292.6-137.3L358,228.5L410.6,419.6z"/>
		<path d="M751.8,240.9c-137.8-22.7-275.7-45.4-413.5-68c-14.7-2.4-28.4,0.3-40,10.4c-10.1,8.8-20.3,17.5-30.4,26.3
			c-79,68.6-158,137.3-237,205.9C7,436.2,8.4,452.9,35.4,468.9c40.5,23.9,81.1,47.7,121.6,71.6c93.1,54.8,186.2,109.6,279.5,164.1
			c6.4,3.7,14.4,6.4,21.7,6.3c15-0.2,23.4-15.5,19.2-33.5c-3.7-15.8-8-31.5-12-47.2C452,578.3,438.5,526.5,424.9,474
			c27.1-13.5,53.3-26.6,79.6-39.7c86-42.8,172.1-85.7,258.1-128.5c9-4.5,16.5-10.4,19.9-20.1C790.2,263.9,777.2,245.1,751.8,240.9z
			 M81.2,437.7c76-65.6,151.2-130.5,227.5-196.4c35.6,132.1,70.9,263.1,106.8,396.3C303.1,570.5,192.7,504.4,81.2,437.7z
			 M409.7,421.6c-17.9-65-35.6-129.1-53.7-194.8C472.9,245,588.7,263,704.4,281c0.1,0.7,0.3,1.4,0.4,2
			C606.8,329.1,508.8,375.1,409.7,421.6z"/>
	</g>
</g>
</svg>
